PathFileType	4	(X/Y/Z)	Walk9.trc
DataRate	CameraRate	NumFrames	NumMarkers	Units	OrigDataRate	OrigDataStartFrame	OrigNumFrames
200.000000	200.000000	7	67	mm	200.000000	714	954
Frame#	Times		RCAR		LowerBodyModelVer		RUA1		LFHD		LTB3		LTH3		LTB2		RASI		LTB4		RFHD		LACR1		LTH1		RElbow		LToe		RACR1		RBHD		RTH3		LUA1		LCAR		RFA1		RWRU		RLFC		LASI		PELOrigin		RTH4		CLAV		LTH2		LWRR		RTB4		C7		STRN		LLFC		RBack		LElbow		RMT1		LFA1		RTH1		RTB3		LTB1		RTH2		LWRU		RToe		LPSI		RPSI		RTB1		LHJC		MidPelvis		OPelvis		RHJC		SACR		XPelvis		YPelvis		ZPelvis		LTH4		RTB2		RWRR		LElbowM		LMT1		LBHD		RLMAL		RMMAL		RCAL		LMMAL		T10		RElbowM		LCAL		LMT5
			X1	Y1	Z1	X2	Y2	Z2	X3	Y3	Z3	X4	Y4	Z4	X5	Y5	Z5	X6	Y6	Z6	X7	Y7	Z7	X8	Y8	Z8	X9	Y9	Z9	X10	Y10	Z10	X11	Y11	Z11	X12	Y12	Z12	X13	Y13	Z13	X14	Y14	Z14	X15	Y15	Z15	X16	Y16	Z16	X17	Y17	Z17	X18	Y18	Z18	X19	Y19	Z19	X20	Y20	Z20	X21	Y21	Z21	X22	Y22	Z22	X23	Y23	Z23	X24	Y24	Z24	X25	Y25	Z25	X26	Y26	Z26	X27	Y27	Z27	X28	Y28	Z28	X29	Y29	Z29	X30	Y30	Z30	X31	Y31	Z31	X32	Y32	Z32	X33	Y33	Z33	X34	Y34	Z34	X35	Y35	Z35	X36	Y36	Z36	X37	Y37	Z37	X38	Y38	Z38	X39	Y39	Z39	X40	Y40	Z40	X41	Y41	Z41	X42	Y42	Z42	X43	Y43	Z43	X44	Y44	Z44	X45	Y45	Z45	X46	Y46	Z46	X47	Y47	Z47	X48	Y48	Z48	X49	Y49	Z49	X50	Y50	Z50	X51	Y51	Z51	X52	Y52	Z52	X53	Y53	Z53	X54	Y54	Z54	X55	Y55	Z55	X56	Y56	Z56	X57	Y57	Z57	X58	Y58	Z58	X59	Y59	Z59	X60	Y60	Z60	X61	Y61	Z61	X62	Y62	Z62	X63	Y63	Z63	X64	Y64	Z64	X65	Y65	Z65	X66	Y66	Z66	X67	Y67	Z67

714	3.57	-129.84	761.48	287.61	9	2014	4	-135.56	1182.9	225.93	25.124	1577	-74.653	-187.16	161.3	-60.223	-130.63	594.29	-174.22	-182.03	248.12	-116.33	-7.2913	970.11	137.48	-161.84	243.42	-58.673	29.824	1580.7	19.894	-87.044	1375.5	-175.83	-94.546	749.09	-237.73	-192.64	1065.9	247.34	-67.239	22.876	-50.778	-107.11	1366.7	134.82	-127.91	1550.4	44.112	21.606	590.59	168.72	-86.849	1201.9	-280.51	63.972	833.84	-328.56	-200.79	920.04	265.4	-189.09	810.87	275.91	51.756	513.78	149.9	14.553	953.73	-155.59	3.6308	961.92	-9.0557	-14.822	665.38	186.94	-36.772	1332.5	-19.735	-57.958	670.64	-183.04	36.181	872.29	-285.43	104.14	273.05	96.535	-171.55	1413.7	-19.633	20.294	1227.5	-9.1441	-152.7	473.86	-139.91	-232.8	1316.9	79.322	-116.97	1079.8	-321.38	171.05	56.592	89.759	-69.248	948.71	-336.46	-49.557	743.17	208.36	93.933	189.14	101.11	-136.49	326.38	-59.328	38.749	692.35	187.07	-8.84	847.02	-336.98	217.59	72.164	131.66	-240.9	960.78	-71.676	-247.61	961.25	17.788	113.89	359.54	98.608	-58.099	862.05	-108.59	-120.31	961.47	-18	3.6308	961.92	-9.0557	-72.953	873.18	90.705	-244.25	961.01	-26.944	83.41	962.22	-3.1262	3.6614	1041.8	-13.517	-2.3063	966.37	70.599	-113.36	673.8	-200.91	70.488	278.67	149.43	-130.4	813.08	235.79	-152.27	1043.2	-253.73	-137.9	28.032	-21.234	-130.31	1537.4	-96.519	47.121	75.636	121.55	77.568	83.652	44.092	-5.1954	34.152	73.383	-237.07	63.62	-0.6668	-250.14	1148.8	-39.081	-194.11	1036.5	152.89	-316.74	39.144	-50.738	-119.67	25.637	-86.209
715	3.575	-126.44	760.63	288.09	9	2014	4	-130.65	1182.1	226.16	31.112	1576.1	-74.114	-186.48	161.32	-60.28	-127.28	594.08	-174.06	-181.01	248.16	-116.33	-0.97797	969.32	137.69	-160.7	243.32	-58.756	35.847	1579.8	20.433	-80.94	1374.8	-175.4	-90.134	748.54	-237.77	-188.12	1065.1	247.21	-67.206	22.847	-50.83	-101.35	1365.9	135.19	-121.89	1549.6	44.715	27.286	589.79	168.84	-79.673	1201.4	-280.12	74.597	835.5	-327.7	-196.8	919.36	265.22	-185.53	810.11	275.76	57.319	512.84	149.95	20.109	952.75	-155.58	9.5654	961.04	-8.9419	-8.609	664.75	187.33	-30.861	1331.8	-19.398	-54.055	669.76	-182.87	46.255	873.71	-284.71	116.94	273.72	97.096	-165.66	1412.9	-19.309	26.296	1226.7	-8.9736	-150.29	473.77	-139.79	-227.02	1316	79.458	-109.28	1079.3	-321.41	191.49	59.368	91.081	-60.044	948.66	-336.15	-42.776	742.7	209.06	109.71	189.47	102.08	-134.88	326.12	-59.424	45.046	691.45	187.05	1.6552	847.74	-336.24	237.6	76.507	132.76	-235.22	960.02	-70.834	-241.53	960.47	18.649	123.58	360.54	98.775	-52.498	861.08	-108.3	-114.4	960.64	-17.517	9.5654	961.04	-8.9419	-66.837	872.35	91.121	-238.37	960.25	-26.092	89.36	961.3	-3.2194	9.6229	1040.9	-13.451	3.8371	965.54	70.726	-109.45	673.43	-200.86	83.25	278.36	150.04	-126.26	812.2	236.28	-144.52	1042.3	-253.9	-137.87	28.072	-21.265	-124.38	1536.8	-95.93	66.96	74.41	122.88	97.103	83.249	45.409	16.015	31.116	74.852	-236.8	63.921	-0.61317	-244.25	1148	-38.792	-187.83	1035.8	152.65	-316.66	39.761	-50.598	-119.61	25.88	-86.18
716	3.58	-122.98	759.76	288.55	9	2014	4	-125.72	1181.2	226.42	37.109	1575.2	-73.572	-185.76	161.37	-60.321	-123.85	593.87	-173.88	-179.93	248.2	-116.32	5.3643	968.5	137.92	-159.52	243.23	-58.822	41.879	1578.8	20.972	-74.866	1374.1	-174.96	-85.665	747.98	-237.78	-183.55	1064.4	247.1	-67.173	22.814	-50.892	-95.573	1365	135.56	-115.86	1548.8	45.326	32.824	588.84	169.03	-72.518	1200.9	-279.71	85.127	837.1	-326.77	-192.75	918.67	265.08	-181.89	809.35	275.63	62.769	511.79	150.05	25.696	951.76	-155.54	15.53	960.13	-8.8098	-2.4808	664.01	187.75	-24.948	1331	-19.056	-50.088	668.89	-182.71	56.236	875.07	-283.94	129.5	274.51	97.638	-159.78	1412.1	-18.964	32.317	1225.9	-8.8157	-147.8	473.67	-139.65	-221.23	1315.1	79.634	-101.57	1078.8	-321.4	211.5	62.44	92.254	-50.87	948.59	-335.79	-36.018	742.15	209.75	125.21	190.04	103.01	-133.22	325.87	-59.496	51.262	690.4	186.99	12.069	848.42	-335.47	257.19	81.075	133.69	-229.52	959.24	-69.977	-235.4	959.65	19.521	133.08	361.56	98.933	-46.862	860.1	-108.01	-108.47	959.79	-17.019	15.53	960.13	-8.8098	-60.687	871.49	91.547	-232.46	959.45	-25.228	95.339	960.36	-3.2938	15.611	1040	-13.361	10.01	964.68	70.87	-105.49	673.04	-200.79	95.813	278.2	150.64	-122.07	811.31	236.77	-136.75	1041.5	-254.03	-137.83	28.113	-21.294	-118.44	1536.1	-95.335	86.511	73.566	124.17	116.28	83.205	46.671	36.933	28.525	76.303	-236.53	64.245	-0.55137	-238.35	1147.2	-38.457	-184.9	1035.3	152.63	-316.57	40.423	-50.443	-119.56	26.139	-86.163
717	3.585	-119.45	758.88	288.99	9	2014	4	-120.76	1180.3	226.71	43.115	1574.3	-73.028	-185.02	161.43	-60.343	-120.34	593.66	-173.69	-178.8	248.27	-116.29	11.736	967.65	138.16	-158.3	243.14	-58.87	47.919	1577.8	21.513	-68.821	1373.4	-174.52	-81.131	747.42	-237.75	-178.93	1063.6	247.01	-67.139	22.775	-50.968	-89.769	1364.1	135.96	-109.81	1548	45.944	38.235	587.75	169.3	-65.388	1200.3	-279.27	95.558	838.63	-325.79	-188.65	917.96	264.96	-178.18	808.58	275.52	68.133	510.62	150.2	31.313	950.77	-155.49	21.525	959.21	-8.6621	3.5676	663.15	188.22	-19.03	1330.2	-18.708	-46.052	668.03	-182.53	66.122	876.36	-283.12	141.81	275.42	98.156	-153.91	1411.2	-18.597	38.354	1225.1	-8.6654	-145.23	473.58	-139.49	-215.41	1314.2	79.85	-93.85	1078.2	-321.35	231.02	65.772	93.268	-41.727	948.49	-335.39	-29.29	741.52	210.43	140.39	190.81	103.9	-131.5	325.62	-59.542	57.399	689.22	186.9	22.398	849.07	-334.67	276.33	85.822	134.45	-223.8	958.44	-69.105	-229.24	958.81	20.406	142.4	362.6	99.076	-41.189	859.12	-107.7	-102.5	958.92	-16.506	21.525	959.21	-8.6621	-54.502	870.6	91.979	-226.52	958.62	-24.349	101.35	959.41	-3.3521	21.626	1039.1	-13.249	16.212	963.79	71.03	-101.45	672.64	-200.69	108.17	278.2	151.23	-117.84	810.43	237.27	-128.99	1040.6	-254.13	-137.79	28.155	-21.321	-112.51	1535.4	-94.731	105.72	73.085	125.42	135.05	83.5	47.87	57.494	26.367	77.73	-236.24	64.592	-0.48086	-232.44	1146.3	-38.076	-181.52	1034.8	152.62	-316.48	41.133	-50.276	-119.5	26.415	-86.164
718	3.59	-115.85	757.98	289.42	9	2014	4	-115.77	1179.5	227.02	49.129	1573.4	-72.482	-184.24	161.51	-60.346	-116.75	593.45	-173.48	-177.62	248.35	-116.24	18.137	966.78	138.41	-157.02	243.06	-58.897	53.967	1576.8	22.056	-62.805	1372.7	-174.07	-76.526	746.84	-237.7	-174.28	1062.8	246.94	-67.103	22.73	-51.057	-83.94	1363.2	136.36	-103.76	1547.1	46.571	43.537	586.52	169.65	-58.289	1199.7	-278.82	105.89	840.1	-324.74	-184.49	917.24	264.87	-174.39	807.8	275.43	73.438	509.37	150.41	36.962	949.78	-155.41	27.55	958.28	-8.5013	9.5425	662.19	188.74	-13.108	1329.3	-18.352	-41.943	667.17	-182.35	75.91	877.58	-282.24	153.87	276.42	98.64	-148.03	1410.3	-18.208	44.404	1224.3	-8.5176	-142.56	473.49	-139.3	-209.57	1313.3	80.105	-86.119	1077.6	-321.26	250.02	69.319	94.113	-32.618	948.37	-334.95	-22.596	740.81	211.08	155.22	191.78	104.74	-129.71	325.36	-59.559	63.46	687.9	186.77	32.639	849.69	-333.86	294.97	90.699	135.01	-218.05	957.61	-68.216	-223.04	957.94	21.307	151.54	363.64	99.197	-35.478	858.13	-107.39	-96.497	958.03	-15.978	27.55	958.28	-8.5013	-48.279	869.69	92.412	-220.54	957.78	-23.454	107.39	958.46	-3.3967	27.666	1038.1	-13.116	22.443	962.89	71.202	-97.33	672.22	-200.56	120.3	278.33	151.79	-113.57	809.54	237.76	-121.22	1039.6	-254.19	-137.74	28.2	-21.345	-106.57	1534.7	-94.119	124.52	72.945	126.61	153.36	84.106	48.997	77.631	24.623	79.124	-235.95	64.964	-0.4019	-226.53	1145.5	-37.65	-177.71	1034.3	152.63	-316.37	41.894	-50.099	-119.44	26.707	-86.184
719	3.595	-112.18	757.06	289.83	9	2014	4	-110.74	1178.6	227.35	55.153	1572.4	-71.934	-183.42	161.61	-60.331	-113.08	593.23	-173.25	-176.37	248.44	-116.17	24.567	965.89	138.66	-155.7	242.99	-58.905	60.025	1575.7	22.601	-56.816	1372	-173.61	-71.844	746.26	-237.61	-169.57	1062	246.89	-67.065	22.679	-51.16	-78.088	1362.3	136.78	-97.697	1546.3	47.208	48.748	585.17	170.1	-51.223	1199.1	-278.35	116.11	841.51	-323.64	-180.26	916.5	264.8	-170.53	807.01	275.37	78.712	508.04	150.67	42.64	948.79	-155.32	33.604	957.34	-8.3296	15.452	661.13	189.31	-7.1806	1328.5	-17.985	-37.756	666.34	-182.17	85.6	878.72	-281.3	165.66	277.52	99.083	-142.16	1409.4	-17.795	50.466	1223.5	-8.3669	-139.81	473.39	-139.09	-203.71	1312.3	80.4	-78.377	1077	-321.12	268.44	73.031	94.785	-23.544	948.22	-334.47	-15.942	740.02	211.7	169.68	192.92	105.53	-127.85	325.11	-59.547	69.451	686.47	186.61	42.791	850.27	-333.01	313.08	95.649	135.39	-212.27	956.76	-67.309	-216.81	957.05	22.225	160.52	364.68	99.289	-29.728	857.14	-107.07	-90.468	957.12	-15.436	33.604	957.34	-8.3296	-42.017	868.76	92.842	-214.54	956.91	-22.542	113.45	957.5	-3.43	33.73	1037.2	-12.966	28.703	961.97	71.385	-93.131	671.8	-200.4	132.19	278.6	152.33	-109.26	808.64	238.24	-113.46	1038.7	-254.21	-137.68	28.247	-21.366	-100.62	1534	-93.497	142.87	73.115	127.73	171.15	84.991	50.047	97.278	23.271	80.476	-235.64	65.365	-0.3157	-220.6	1144.6	-37.178	-173.51	1033.7	152.65	-316.26	42.711	-49.917	-119.38	27.014	-86.229
720	3.6	-108.44	756.14	290.23	9	2014	4	-105.68	1177.7	227.71	61.184	1571.5	-71.383	-182.57	161.73	-60.299	-109.31	593.01	-173	-175.06	248.55	-116.07	31.025	964.97	138.91	-154.32	242.92	-58.893	66.091	1574.6	23.148	-50.852	1371.2	-173.14	-67.08	745.67	-237.49	-164.81	1061.2	246.86	-67.024	22.62	-51.278	-72.211	1361.3	137.21	-91.62	1545.4	47.855	53.891	583.71	170.64	-44.192	1198.5	-277.86	126.23	842.85	-322.49	-175.98	915.75	264.76	-166.59	806.21	275.33	83.986	506.66	150.98	48.347	947.81	-155.21	39.686	956.39	-8.1491	21.305	659.98	189.94	-1.2464	1327.6	-17.607	-33.489	665.51	-181.97	95.188	879.79	-280.31	177.16	278.68	99.477	-136.29	1408.5	-17.359	56.535	1222.7	-8.208	-136.95	473.3	-138.86	-197.84	1311.4	80.736	-70.626	1076.4	-320.95	286.25	76.852	95.28	-14.509	948.05	-333.95	-9.3312	739.17	212.29	183.75	194.2	106.24	-125.93	324.86	-59.506	75.376	684.93	186.43	52.851	850.81	-332.14	330.63	100.61	135.58	-206.47	955.9	-66.383	-210.54	956.14	23.162	169.32	365.71	99.347	-23.937	856.15	-106.74	-84.407	956.2	-14.88	39.686	956.39	-8.1491	-35.716	867.82	93.267	-208.5	956.02	-21.61	119.55	956.54	-3.454	39.817	1036.3	-12.801	34.991	961.04	71.577	-88.847	671.36	-200.2	143.85	278.99	152.83	-104.94	807.74	238.71	-105.7	1037.7	-254.19	-137.63	28.298	-21.384	-94.667	1533.2	-92.864	160.72	73.561	128.78	188.39	86.116	51.012	116.37	22.279	81.776	-235.32	65.795	-0.22441	-214.67	1143.7	-36.661	-168.98	1033	152.69	-316.14	43.585	-49.734	-119.31	27.337	-86.3
